<svg width="20" height="20" viewBox="0 0 20 20" fill="none" xmlns="http://www.w3.org/2000/svg">
<path d="M4 19L3.00221 19.0665L3.06445 20H4V19ZM16 19V20H16.9356L16.9978 19.0665L16 19ZM1 3H0V5H1V3ZM19 5H20V3H19V5ZM9 9V8H7V9H9ZM7 14V15H9V14H7ZM13 9V8H11V9H13ZM11 14V15H13V14H11ZM2.00221 4.06652L3.00221 19.0665L4.99779 18.9335L3.99779 3.93348L2.00221 4.06652ZM4 20H16V18H4V20ZM16.9978 19.0665L17.9978 4.06652L16.0022 3.93348L15.0022 18.9335L16.9978 19.0665ZM17 3H3V5H17V3ZM1 5H3V3H1V5ZM17 5H19V3H17V5ZM7 9V14H9V9H7ZM11 9V14H13V9H11ZM10 2C11.3965 2 12.5725 2.95512 12.9055 4.24926L14.8424 3.75074C14.2874 1.59442 12.3312 0 10 0V2ZM7.09445 4.24926C7.42754 2.95512 8.60349 2 10 2V0C7.66883 0 5.71258 1.59442 5.15758 3.75074L7.09445 4.24926Z" fill="#666666"/>
</svg>
