<svg width="18" height="18" viewBox="0 0 18 18" fill="none" xmlns="http://www.w3.org/2000/svg">
<path d="M12 3.5C10.6193 3.5 9.5 4.61929 9.5 6C9.5 7.38071 10.6193 8.5 12 8.5C13.3807 8.5 14.5 7.38071 14.5 6C14.5 4.61929 13.3807 3.5 12 3.5Z" fill="white"/>
<path fill-rule="evenodd" clip-rule="evenodd" d="M0 0H18V18H15.5266L15.4945 18.0002H2.5L2.46787 18H0V0ZM16 9.83624C14.8552 10.898 13.7044 11.4537 12 11.4537C10.0944 11.4537 8.62078 10.2859 7.15266 8.70482C6.15108 7.62619 4.51491 7.43354 3.29018 8.25002L3.26758 8.26509L2 9.21342V2H16V9.83624Z" fill="#666666"/>
</svg>
